<mxfile host="app.diagrams.net" modified="2022-09-27T07:18:26.076Z" agent="5.0 (Macintosh; Intel Mac OS X 10_15_7) AppleWebKit/537.36 (KHTML, like Gecko) Chrome/105.0.0.0 Safari/537.36" etag="Jzx8hUyQUSvLx4W354-i" version="20.3.3" type="github">
  <diagram id="C5RBs43oDa-KdzZeNtuy" name="Page-1">
    <mxGraphModel dx="1845" dy="691" grid="1" gridSize="10" guides="1" tooltips="1" connect="1" arrows="1" fold="1" page="1" pageScale="1" pageWidth="827" pageHeight="1169" math="0" shadow="0">
      <root>
        <mxCell id="WIyWlLk6GJQsqaUBKTNV-0" />
        <mxCell id="WIyWlLk6GJQsqaUBKTNV-1" parent="WIyWlLk6GJQsqaUBKTNV-0" />
        <mxCell id="mUAAqYe-XiGOGHfr_KH4-2" value="" style="edgeStyle=orthogonalEdgeStyle;rounded=0;orthogonalLoop=1;jettySize=auto;html=1;" edge="1" parent="WIyWlLk6GJQsqaUBKTNV-1" source="mUAAqYe-XiGOGHfr_KH4-0" target="mUAAqYe-XiGOGHfr_KH4-1">
          <mxGeometry relative="1" as="geometry" />
        </mxCell>
        <mxCell id="mUAAqYe-XiGOGHfr_KH4-5" value="" style="edgeStyle=orthogonalEdgeStyle;rounded=0;orthogonalLoop=1;jettySize=auto;html=1;" edge="1" parent="WIyWlLk6GJQsqaUBKTNV-1" source="mUAAqYe-XiGOGHfr_KH4-0" target="mUAAqYe-XiGOGHfr_KH4-4">
          <mxGeometry relative="1" as="geometry" />
        </mxCell>
        <mxCell id="mUAAqYe-XiGOGHfr_KH4-8" style="edgeStyle=orthogonalEdgeStyle;rounded=0;orthogonalLoop=1;jettySize=auto;html=1;exitX=1;exitY=0.25;exitDx=0;exitDy=0;entryX=-0.006;entryY=0.37;entryDx=0;entryDy=0;entryPerimeter=0;" edge="1" parent="WIyWlLk6GJQsqaUBKTNV-1" source="mUAAqYe-XiGOGHfr_KH4-0" target="mUAAqYe-XiGOGHfr_KH4-1">
          <mxGeometry relative="1" as="geometry" />
        </mxCell>
        <mxCell id="mUAAqYe-XiGOGHfr_KH4-11" style="edgeStyle=orthogonalEdgeStyle;rounded=0;orthogonalLoop=1;jettySize=auto;html=1;exitX=1;exitY=0.75;exitDx=0;exitDy=0;entryX=0;entryY=0.63;entryDx=0;entryDy=0;entryPerimeter=0;" edge="1" parent="WIyWlLk6GJQsqaUBKTNV-1" source="mUAAqYe-XiGOGHfr_KH4-0" target="mUAAqYe-XiGOGHfr_KH4-1">
          <mxGeometry relative="1" as="geometry" />
        </mxCell>
        <mxCell id="mUAAqYe-XiGOGHfr_KH4-13" style="edgeStyle=orthogonalEdgeStyle;rounded=0;orthogonalLoop=1;jettySize=auto;html=1;exitX=1;exitY=1;exitDx=0;exitDy=0;entryX=-0.012;entryY=0.804;entryDx=0;entryDy=0;entryPerimeter=0;" edge="1" parent="WIyWlLk6GJQsqaUBKTNV-1" source="mUAAqYe-XiGOGHfr_KH4-0" target="mUAAqYe-XiGOGHfr_KH4-1">
          <mxGeometry relative="1" as="geometry" />
        </mxCell>
        <mxCell id="mUAAqYe-XiGOGHfr_KH4-0" value="&lt;h1&gt;核心需求&lt;/h1&gt;&lt;div&gt;1.操作员将法规文件上传到平台，拆解出来标签，在线展示打标后的文档；&lt;/div&gt;&lt;div&gt;&lt;br&gt;&lt;/div&gt;&lt;div&gt;2.总行操作员制度下发给分行或条线文书&lt;/div&gt;&lt;div&gt;&lt;br&gt;&lt;/div&gt;&lt;div&gt;3.标签、文档、法条构成知识库，便于从其中一个维度快捷检索；&lt;br&gt;&lt;br&gt;&lt;/div&gt;&lt;div&gt;4.制度编辑审核辅助&lt;/div&gt;" style="text;html=1;strokeColor=none;fillColor=none;spacing=5;spacingTop=-20;whiteSpace=wrap;overflow=hidden;rounded=0;" vertex="1" parent="WIyWlLk6GJQsqaUBKTNV-1">
          <mxGeometry x="131" y="570" width="189" height="240" as="geometry" />
        </mxCell>
        <mxCell id="mUAAqYe-XiGOGHfr_KH4-1" value="合规平台" style="rounded=1;whiteSpace=wrap;html=1;" vertex="1" parent="WIyWlLk6GJQsqaUBKTNV-1">
          <mxGeometry x="520" y="460" width="170" height="460" as="geometry" />
        </mxCell>
        <mxCell id="mUAAqYe-XiGOGHfr_KH4-3" value="第二步：定义系统操作" style="text;html=1;strokeColor=none;fillColor=none;align=center;verticalAlign=middle;whiteSpace=wrap;rounded=0;" vertex="1" parent="WIyWlLk6GJQsqaUBKTNV-1">
          <mxGeometry x="527" y="430" width="140" height="30" as="geometry" />
        </mxCell>
        <mxCell id="mUAAqYe-XiGOGHfr_KH4-4" value="" style="rounded=1;whiteSpace=wrap;html=1;" vertex="1" parent="WIyWlLk6GJQsqaUBKTNV-1">
          <mxGeometry x="-170" y="502" width="186.5" height="238" as="geometry" />
        </mxCell>
        <mxCell id="mUAAqYe-XiGOGHfr_KH4-6" value="第一步：定义抽象领域模型" style="text;html=1;strokeColor=none;fillColor=none;align=center;verticalAlign=middle;whiteSpace=wrap;rounded=0;" vertex="1" parent="WIyWlLk6GJQsqaUBKTNV-1">
          <mxGeometry x="-150" y="467" width="150" height="30" as="geometry" />
        </mxCell>
        <mxCell id="mUAAqYe-XiGOGHfr_KH4-9" value="uploadLawFile（）" style="text;html=1;align=center;verticalAlign=middle;resizable=0;points=[];autosize=1;strokeColor=none;fillColor=none;" vertex="1" parent="WIyWlLk6GJQsqaUBKTNV-1">
          <mxGeometry x="356" y="605" width="120" height="30" as="geometry" />
        </mxCell>
        <mxCell id="mUAAqYe-XiGOGHfr_KH4-10" value="distributeLaw（）" style="text;html=1;align=center;verticalAlign=middle;resizable=0;points=[];autosize=1;strokeColor=none;fillColor=none;" vertex="1" parent="WIyWlLk6GJQsqaUBKTNV-1">
          <mxGeometry x="355" y="655" width="120" height="30" as="geometry" />
        </mxCell>
        <mxCell id="mUAAqYe-XiGOGHfr_KH4-12" value="auditInnerLaw（）" style="text;html=1;align=center;verticalAlign=middle;resizable=0;points=[];autosize=1;strokeColor=none;fillColor=none;" vertex="1" parent="WIyWlLk6GJQsqaUBKTNV-1">
          <mxGeometry x="356" y="715" width="120" height="30" as="geometry" />
        </mxCell>
        <mxCell id="mUAAqYe-XiGOGHfr_KH4-14" value="searchLaw（）" style="text;html=1;align=center;verticalAlign=middle;resizable=0;points=[];autosize=1;strokeColor=none;fillColor=none;" vertex="1" parent="WIyWlLk6GJQsqaUBKTNV-1">
          <mxGeometry x="345" y="805" width="110" height="30" as="geometry" />
        </mxCell>
        <mxCell id="mUAAqYe-XiGOGHfr_KH4-16" value="" style="endArrow=classic;html=1;rounded=0;entryX=0;entryY=0.948;entryDx=0;entryDy=0;entryPerimeter=0;exitX=0.25;exitY=1;exitDx=0;exitDy=0;" edge="1" parent="WIyWlLk6GJQsqaUBKTNV-1" source="mUAAqYe-XiGOGHfr_KH4-0" target="mUAAqYe-XiGOGHfr_KH4-1">
          <mxGeometry width="50" height="50" relative="1" as="geometry">
            <mxPoint x="410" y="940" as="sourcePoint" />
            <mxPoint x="500" y="900" as="targetPoint" />
            <Array as="points">
              <mxPoint x="178" y="890" />
            </Array>
          </mxGeometry>
        </mxCell>
        <mxCell id="mUAAqYe-XiGOGHfr_KH4-17" value="searchLabel（）" style="text;html=1;align=center;verticalAlign=middle;resizable=0;points=[];autosize=1;strokeColor=none;fillColor=none;" vertex="1" parent="WIyWlLk6GJQsqaUBKTNV-1">
          <mxGeometry x="319" y="870" width="110" height="30" as="geometry" />
        </mxCell>
        <mxCell id="mUAAqYe-XiGOGHfr_KH4-21" style="edgeStyle=orthogonalEdgeStyle;rounded=0;orthogonalLoop=1;jettySize=auto;html=1;exitX=0.5;exitY=1;exitDx=0;exitDy=0;entryX=0.25;entryY=0;entryDx=0;entryDy=0;" edge="1" parent="WIyWlLk6GJQsqaUBKTNV-1" source="mUAAqYe-XiGOGHfr_KH4-18" target="mUAAqYe-XiGOGHfr_KH4-19">
          <mxGeometry relative="1" as="geometry">
            <Array as="points">
              <mxPoint x="-120" y="560" />
              <mxPoint x="-120" y="590" />
              <mxPoint x="-140" y="590" />
            </Array>
          </mxGeometry>
        </mxCell>
        <mxCell id="mUAAqYe-XiGOGHfr_KH4-22" style="edgeStyle=orthogonalEdgeStyle;rounded=0;orthogonalLoop=1;jettySize=auto;html=1;exitX=0.75;exitY=1;exitDx=0;exitDy=0;" edge="1" parent="WIyWlLk6GJQsqaUBKTNV-1" source="mUAAqYe-XiGOGHfr_KH4-18" target="mUAAqYe-XiGOGHfr_KH4-20">
          <mxGeometry relative="1" as="geometry" />
        </mxCell>
        <mxCell id="mUAAqYe-XiGOGHfr_KH4-18" value="Law（法规）" style="rounded=1;whiteSpace=wrap;html=1;" vertex="1" parent="WIyWlLk6GJQsqaUBKTNV-1">
          <mxGeometry x="-137" y="525" width="117" height="35" as="geometry" />
        </mxCell>
        <mxCell id="mUAAqYe-XiGOGHfr_KH4-23" style="edgeStyle=orthogonalEdgeStyle;rounded=0;orthogonalLoop=1;jettySize=auto;html=1;exitX=0.25;exitY=1;exitDx=0;exitDy=0;entryX=0;entryY=0.75;entryDx=0;entryDy=0;" edge="1" parent="WIyWlLk6GJQsqaUBKTNV-1" source="mUAAqYe-XiGOGHfr_KH4-19" target="mUAAqYe-XiGOGHfr_KH4-20">
          <mxGeometry relative="1" as="geometry" />
        </mxCell>
        <mxCell id="mUAAqYe-XiGOGHfr_KH4-78" style="edgeStyle=orthogonalEdgeStyle;rounded=0;orthogonalLoop=1;jettySize=auto;html=1;exitX=0.75;exitY=0;exitDx=0;exitDy=0;entryX=0.346;entryY=1.043;entryDx=0;entryDy=0;entryPerimeter=0;" edge="1" parent="WIyWlLk6GJQsqaUBKTNV-1" source="mUAAqYe-XiGOGHfr_KH4-19" target="mUAAqYe-XiGOGHfr_KH4-18">
          <mxGeometry relative="1" as="geometry" />
        </mxCell>
        <mxCell id="mUAAqYe-XiGOGHfr_KH4-19" value="Label（标签）" style="rounded=1;whiteSpace=wrap;html=1;" vertex="1" parent="WIyWlLk6GJQsqaUBKTNV-1">
          <mxGeometry x="-160" y="620" width="80" height="35" as="geometry" />
        </mxCell>
        <mxCell id="mUAAqYe-XiGOGHfr_KH4-20" value="Clause（法条）" style="rounded=1;whiteSpace=wrap;html=1;" vertex="1" parent="WIyWlLk6GJQsqaUBKTNV-1">
          <mxGeometry x="-70" y="660" width="80" height="35" as="geometry" />
        </mxCell>
        <mxCell id="mUAAqYe-XiGOGHfr_KH4-70" value="" style="edgeStyle=orthogonalEdgeStyle;rounded=0;orthogonalLoop=1;jettySize=auto;html=1;" edge="1" parent="WIyWlLk6GJQsqaUBKTNV-1" source="mUAAqYe-XiGOGHfr_KH4-24" target="mUAAqYe-XiGOGHfr_KH4-69">
          <mxGeometry relative="1" as="geometry" />
        </mxCell>
        <mxCell id="mUAAqYe-XiGOGHfr_KH4-24" value="" style="rounded=1;whiteSpace=wrap;html=1;" vertex="1" parent="WIyWlLk6GJQsqaUBKTNV-1">
          <mxGeometry x="820" y="460" width="170" height="460" as="geometry" />
        </mxCell>
        <mxCell id="mUAAqYe-XiGOGHfr_KH4-25" value="第三步：定义服务" style="text;html=1;align=center;verticalAlign=middle;resizable=0;points=[];autosize=1;strokeColor=none;fillColor=none;" vertex="1" parent="WIyWlLk6GJQsqaUBKTNV-1">
          <mxGeometry x="830" y="435" width="120" height="30" as="geometry" />
        </mxCell>
        <mxCell id="mUAAqYe-XiGOGHfr_KH4-27" value="LawService" style="shape=hexagon;perimeter=hexagonPerimeter2;whiteSpace=wrap;html=1;fixedSize=1;" vertex="1" parent="WIyWlLk6GJQsqaUBKTNV-1">
          <mxGeometry x="845" y="485" width="90" height="75" as="geometry" />
        </mxCell>
        <mxCell id="mUAAqYe-XiGOGHfr_KH4-28" value="LabelService" style="shape=hexagon;perimeter=hexagonPerimeter2;whiteSpace=wrap;html=1;fixedSize=1;" vertex="1" parent="WIyWlLk6GJQsqaUBKTNV-1">
          <mxGeometry x="830" y="580" width="90" height="75" as="geometry" />
        </mxCell>
        <mxCell id="mUAAqYe-XiGOGHfr_KH4-29" value="ClauseService" style="shape=hexagon;perimeter=hexagonPerimeter2;whiteSpace=wrap;html=1;fixedSize=1;" vertex="1" parent="WIyWlLk6GJQsqaUBKTNV-1">
          <mxGeometry x="900" y="660" width="90" height="75" as="geometry" />
        </mxCell>
        <mxCell id="mUAAqYe-XiGOGHfr_KH4-30" value="FileService" style="shape=hexagon;perimeter=hexagonPerimeter2;whiteSpace=wrap;html=1;fixedSize=1;" vertex="1" parent="WIyWlLk6GJQsqaUBKTNV-1">
          <mxGeometry x="820" y="740" width="90" height="75" as="geometry" />
        </mxCell>
        <mxCell id="mUAAqYe-XiGOGHfr_KH4-31" value="NLPService" style="shape=hexagon;perimeter=hexagonPerimeter2;whiteSpace=wrap;html=1;fixedSize=1;" vertex="1" parent="WIyWlLk6GJQsqaUBKTNV-1">
          <mxGeometry x="870" y="825" width="90" height="75" as="geometry" />
        </mxCell>
        <mxCell id="mUAAqYe-XiGOGHfr_KH4-32" value="" style="shape=flexArrow;endArrow=classic;html=1;rounded=0;" edge="1" parent="WIyWlLk6GJQsqaUBKTNV-1">
          <mxGeometry width="50" height="50" relative="1" as="geometry">
            <mxPoint x="700" y="710" as="sourcePoint" />
            <mxPoint x="810" y="710" as="targetPoint" />
          </mxGeometry>
        </mxCell>
        <mxCell id="mUAAqYe-XiGOGHfr_KH4-33" value="" style="rounded=1;whiteSpace=wrap;html=1;" vertex="1" parent="WIyWlLk6GJQsqaUBKTNV-1">
          <mxGeometry x="1095" y="460" width="305" height="460" as="geometry" />
        </mxCell>
        <mxCell id="mUAAqYe-XiGOGHfr_KH4-35" value="第四步：定义服务API和协作方式" style="text;html=1;align=center;verticalAlign=middle;resizable=0;points=[];autosize=1;strokeColor=none;fillColor=none;" vertex="1" parent="WIyWlLk6GJQsqaUBKTNV-1">
          <mxGeometry x="1130" y="435" width="200" height="30" as="geometry" />
        </mxCell>
        <mxCell id="mUAAqYe-XiGOGHfr_KH4-36" value="LawService" style="shape=hexagon;perimeter=hexagonPerimeter2;whiteSpace=wrap;html=1;fixedSize=1;" vertex="1" parent="WIyWlLk6GJQsqaUBKTNV-1">
          <mxGeometry x="1110" y="485" width="90" height="75" as="geometry" />
        </mxCell>
        <mxCell id="mUAAqYe-XiGOGHfr_KH4-37" value="" style="whiteSpace=wrap;html=1;aspect=fixed;" vertex="1" parent="WIyWlLk6GJQsqaUBKTNV-1">
          <mxGeometry x="1110" y="330" width="10" height="10" as="geometry" />
        </mxCell>
        <mxCell id="mUAAqYe-XiGOGHfr_KH4-38" value="" style="whiteSpace=wrap;html=1;aspect=fixed;" vertex="1" parent="WIyWlLk6GJQsqaUBKTNV-1">
          <mxGeometry x="1110" y="490" width="20" height="20" as="geometry" />
        </mxCell>
        <mxCell id="mUAAqYe-XiGOGHfr_KH4-40" value="" style="endArrow=classic;html=1;rounded=0;entryX=0;entryY=0.5;entryDx=0;entryDy=0;" edge="1" parent="WIyWlLk6GJQsqaUBKTNV-1" target="mUAAqYe-XiGOGHfr_KH4-38">
          <mxGeometry width="50" height="50" relative="1" as="geometry">
            <mxPoint x="1010" y="500" as="sourcePoint" />
            <mxPoint x="1070" y="480" as="targetPoint" />
          </mxGeometry>
        </mxCell>
        <mxCell id="mUAAqYe-XiGOGHfr_KH4-41" value="distributeLaw（）" style="text;html=1;align=center;verticalAlign=middle;resizable=0;points=[];autosize=1;strokeColor=none;fillColor=none;" vertex="1" parent="WIyWlLk6GJQsqaUBKTNV-1">
          <mxGeometry x="980" y="475" width="120" height="30" as="geometry" />
        </mxCell>
        <mxCell id="mUAAqYe-XiGOGHfr_KH4-42" value="LabelService" style="shape=hexagon;perimeter=hexagonPerimeter2;whiteSpace=wrap;html=1;fixedSize=1;" vertex="1" parent="WIyWlLk6GJQsqaUBKTNV-1">
          <mxGeometry x="1120" y="610" width="90" height="75" as="geometry" />
        </mxCell>
        <mxCell id="mUAAqYe-XiGOGHfr_KH4-44" value="ClauseService" style="shape=hexagon;perimeter=hexagonPerimeter2;whiteSpace=wrap;html=1;fixedSize=1;" vertex="1" parent="WIyWlLk6GJQsqaUBKTNV-1">
          <mxGeometry x="1300" y="610" width="90" height="75" as="geometry" />
        </mxCell>
        <mxCell id="mUAAqYe-XiGOGHfr_KH4-45" value="" style="whiteSpace=wrap;html=1;aspect=fixed;" vertex="1" parent="WIyWlLk6GJQsqaUBKTNV-1">
          <mxGeometry x="1120" y="615" width="20" height="20" as="geometry" />
        </mxCell>
        <mxCell id="mUAAqYe-XiGOGHfr_KH4-46" value="" style="whiteSpace=wrap;html=1;aspect=fixed;" vertex="1" parent="WIyWlLk6GJQsqaUBKTNV-1">
          <mxGeometry x="1300" y="615" width="20" height="20" as="geometry" />
        </mxCell>
        <mxCell id="mUAAqYe-XiGOGHfr_KH4-49" style="edgeStyle=orthogonalEdgeStyle;rounded=0;orthogonalLoop=1;jettySize=auto;html=1;exitX=0.5;exitY=1;exitDx=0;exitDy=0;entryX=0;entryY=0.25;entryDx=0;entryDy=0;" edge="1" parent="WIyWlLk6GJQsqaUBKTNV-1" source="mUAAqYe-XiGOGHfr_KH4-48" target="mUAAqYe-XiGOGHfr_KH4-45">
          <mxGeometry relative="1" as="geometry" />
        </mxCell>
        <mxCell id="mUAAqYe-XiGOGHfr_KH4-50" style="edgeStyle=orthogonalEdgeStyle;rounded=0;orthogonalLoop=1;jettySize=auto;html=1;exitX=1;exitY=1;exitDx=0;exitDy=0;entryX=0;entryY=0;entryDx=0;entryDy=0;" edge="1" parent="WIyWlLk6GJQsqaUBKTNV-1" source="mUAAqYe-XiGOGHfr_KH4-48" target="mUAAqYe-XiGOGHfr_KH4-46">
          <mxGeometry relative="1" as="geometry" />
        </mxCell>
        <mxCell id="mUAAqYe-XiGOGHfr_KH4-58" style="edgeStyle=orthogonalEdgeStyle;rounded=0;orthogonalLoop=1;jettySize=auto;html=1;exitX=1;exitY=0.5;exitDx=0;exitDy=0;entryX=0.75;entryY=0;entryDx=0;entryDy=0;" edge="1" parent="WIyWlLk6GJQsqaUBKTNV-1" source="mUAAqYe-XiGOGHfr_KH4-48" target="mUAAqYe-XiGOGHfr_KH4-56">
          <mxGeometry relative="1" as="geometry" />
        </mxCell>
        <mxCell id="mUAAqYe-XiGOGHfr_KH4-48" value="" style="whiteSpace=wrap;html=1;aspect=fixed;" vertex="1" parent="WIyWlLk6GJQsqaUBKTNV-1">
          <mxGeometry x="1180" y="532.5" width="20" height="20" as="geometry" />
        </mxCell>
        <mxCell id="mUAAqYe-XiGOGHfr_KH4-52" value="splitClause（）" style="text;html=1;strokeColor=none;fillColor=none;align=center;verticalAlign=middle;whiteSpace=wrap;rounded=0;" vertex="1" parent="WIyWlLk6GJQsqaUBKTNV-1">
          <mxGeometry x="1218" y="555" width="60" height="30" as="geometry" />
        </mxCell>
        <mxCell id="mUAAqYe-XiGOGHfr_KH4-53" value="boundLabel（）" style="text;html=1;strokeColor=none;fillColor=none;align=center;verticalAlign=middle;whiteSpace=wrap;rounded=0;" vertex="1" parent="WIyWlLk6GJQsqaUBKTNV-1">
          <mxGeometry x="1110" y="560" width="60" height="30" as="geometry" />
        </mxCell>
        <mxCell id="mUAAqYe-XiGOGHfr_KH4-54" value="NLPService" style="shape=hexagon;perimeter=hexagonPerimeter2;whiteSpace=wrap;html=1;fixedSize=1;" vertex="1" parent="WIyWlLk6GJQsqaUBKTNV-1">
          <mxGeometry x="1200" y="730" width="90" height="75" as="geometry" />
        </mxCell>
        <mxCell id="mUAAqYe-XiGOGHfr_KH4-56" value="" style="whiteSpace=wrap;html=1;aspect=fixed;" vertex="1" parent="WIyWlLk6GJQsqaUBKTNV-1">
          <mxGeometry x="1270" y="735" width="20" height="20" as="geometry" />
        </mxCell>
        <mxCell id="mUAAqYe-XiGOGHfr_KH4-59" value="extraLabel（）、markLabel（）" style="text;html=1;strokeColor=none;fillColor=none;align=center;verticalAlign=middle;whiteSpace=wrap;rounded=0;" vertex="1" parent="WIyWlLk6GJQsqaUBKTNV-1">
          <mxGeometry x="1220" y="490" width="70" height="50" as="geometry" />
        </mxCell>
        <mxCell id="mUAAqYe-XiGOGHfr_KH4-60" value="FileService" style="shape=hexagon;perimeter=hexagonPerimeter2;whiteSpace=wrap;html=1;fixedSize=1;" vertex="1" parent="WIyWlLk6GJQsqaUBKTNV-1">
          <mxGeometry x="1095" y="795" width="90" height="75" as="geometry" />
        </mxCell>
        <mxCell id="mUAAqYe-XiGOGHfr_KH4-61" value="" style="whiteSpace=wrap;html=1;aspect=fixed;" vertex="1" parent="WIyWlLk6GJQsqaUBKTNV-1">
          <mxGeometry x="1095" y="835" width="20" height="20" as="geometry" />
        </mxCell>
        <mxCell id="mUAAqYe-XiGOGHfr_KH4-62" value="" style="shape=flexArrow;endArrow=classic;html=1;rounded=0;" edge="1" parent="WIyWlLk6GJQsqaUBKTNV-1">
          <mxGeometry width="50" height="50" relative="1" as="geometry">
            <mxPoint x="1000" y="720" as="sourcePoint" />
            <mxPoint x="1090" y="720" as="targetPoint" />
          </mxGeometry>
        </mxCell>
        <mxCell id="mUAAqYe-XiGOGHfr_KH4-63" value="" style="endArrow=classic;html=1;rounded=0;entryX=0;entryY=0.5;entryDx=0;entryDy=0;" edge="1" parent="WIyWlLk6GJQsqaUBKTNV-1" target="mUAAqYe-XiGOGHfr_KH4-61">
          <mxGeometry width="50" height="50" relative="1" as="geometry">
            <mxPoint x="1000" y="845" as="sourcePoint" />
            <mxPoint x="1080" y="840" as="targetPoint" />
          </mxGeometry>
        </mxCell>
        <mxCell id="mUAAqYe-XiGOGHfr_KH4-64" value="uploadFile（）" style="text;html=1;align=center;verticalAlign=middle;resizable=0;points=[];autosize=1;strokeColor=none;fillColor=none;" vertex="1" parent="WIyWlLk6GJQsqaUBKTNV-1">
          <mxGeometry x="988" y="815" width="100" height="30" as="geometry" />
        </mxCell>
        <mxCell id="mUAAqYe-XiGOGHfr_KH4-65" value="GraphService" style="shape=hexagon;perimeter=hexagonPerimeter2;whiteSpace=wrap;html=1;fixedSize=1;" vertex="1" parent="WIyWlLk6GJQsqaUBKTNV-1">
          <mxGeometry x="1270" y="825" width="90" height="75" as="geometry" />
        </mxCell>
        <mxCell id="mUAAqYe-XiGOGHfr_KH4-66" value="" style="whiteSpace=wrap;html=1;aspect=fixed;" vertex="1" parent="WIyWlLk6GJQsqaUBKTNV-1">
          <mxGeometry x="1270" y="870" width="20" height="20" as="geometry" />
        </mxCell>
        <mxCell id="mUAAqYe-XiGOGHfr_KH4-67" value="" style="endArrow=classic;html=1;rounded=0;entryX=0.574;entryY=0.935;entryDx=0;entryDy=0;entryPerimeter=0;" edge="1" parent="WIyWlLk6GJQsqaUBKTNV-1" target="mUAAqYe-XiGOGHfr_KH4-33">
          <mxGeometry width="50" height="50" relative="1" as="geometry">
            <mxPoint x="1000" y="890" as="sourcePoint" />
            <mxPoint x="1060" y="890" as="targetPoint" />
          </mxGeometry>
        </mxCell>
        <mxCell id="mUAAqYe-XiGOGHfr_KH4-68" value="search（）" style="text;html=1;align=center;verticalAlign=middle;resizable=0;points=[];autosize=1;strokeColor=none;fillColor=none;" vertex="1" parent="WIyWlLk6GJQsqaUBKTNV-1">
          <mxGeometry x="1020" y="865" width="80" height="30" as="geometry" />
        </mxCell>
        <mxCell id="mUAAqYe-XiGOGHfr_KH4-74" style="edgeStyle=orthogonalEdgeStyle;rounded=0;orthogonalLoop=1;jettySize=auto;html=1;exitX=1;exitY=0.5;exitDx=0;exitDy=0;entryX=0.5;entryY=1;entryDx=0;entryDy=0;" edge="1" parent="WIyWlLk6GJQsqaUBKTNV-1" source="mUAAqYe-XiGOGHfr_KH4-69" target="mUAAqYe-XiGOGHfr_KH4-33">
          <mxGeometry relative="1" as="geometry" />
        </mxCell>
        <mxCell id="mUAAqYe-XiGOGHfr_KH4-69" value="DDD拆分微服务：&lt;br&gt;&lt;br&gt;1.界限上下文；&lt;br&gt;2.分析聚合" style="whiteSpace=wrap;html=1;rounded=1;" vertex="1" parent="WIyWlLk6GJQsqaUBKTNV-1">
          <mxGeometry x="792.5" y="1040" width="225" height="110" as="geometry" />
        </mxCell>
        <mxCell id="mUAAqYe-XiGOGHfr_KH4-71" value="UserService" style="shape=hexagon;perimeter=hexagonPerimeter2;whiteSpace=wrap;html=1;fixedSize=1;" vertex="1" parent="WIyWlLk6GJQsqaUBKTNV-1">
          <mxGeometry x="1480" y="570" width="90" height="75" as="geometry" />
        </mxCell>
        <mxCell id="mUAAqYe-XiGOGHfr_KH4-72" value="LogService" style="shape=hexagon;perimeter=hexagonPerimeter2;whiteSpace=wrap;html=1;fixedSize=1;" vertex="1" parent="WIyWlLk6GJQsqaUBKTNV-1">
          <mxGeometry x="1480" y="660" width="90" height="75" as="geometry" />
        </mxCell>
        <mxCell id="mUAAqYe-XiGOGHfr_KH4-73" value="MessageService" style="shape=hexagon;perimeter=hexagonPerimeter2;whiteSpace=wrap;html=1;fixedSize=1;" vertex="1" parent="WIyWlLk6GJQsqaUBKTNV-1">
          <mxGeometry x="1480" y="750" width="90" height="75" as="geometry" />
        </mxCell>
        <mxCell id="mUAAqYe-XiGOGHfr_KH4-75" value="CQRS" style="whiteSpace=wrap;html=1;" vertex="1" parent="WIyWlLk6GJQsqaUBKTNV-1">
          <mxGeometry x="1080" y="1050" width="120" height="40" as="geometry" />
        </mxCell>
        <mxCell id="mUAAqYe-XiGOGHfr_KH4-76" value="Event Driven" style="whiteSpace=wrap;html=1;" vertex="1" parent="WIyWlLk6GJQsqaUBKTNV-1">
          <mxGeometry x="1080" y="1100" width="120" height="40" as="geometry" />
        </mxCell>
      </root>
    </mxGraphModel>
  </diagram>
</mxfile>
